<?xml version="1.0" standalone="no"?>
<!DOCTYPE svg PUBLIC "-//W3C//DTD SVG 20010904//EN"
 "http://www.w3.org/TR/2001/REC-SVG-20010904/DTD/svg10.dtd">
<svg version="1.0" xmlns="http://www.w3.org/2000/svg"
 width="335.000000pt" height="335.000000pt" viewBox="0 0 335.000000 335.000000"
 preserveAspectRatio="xMidYMid meet">
<metadata>
Created by potrace 1.14, written by Peter Selinger 2001-2017
</metadata>
<g transform="translate(0.000000,335.000000) scale(0.100000,-0.100000)"
fill="#000000" stroke="none">
<path d="M534 3306 c-73 -18 -190 -76 -252 -125 -98 -78 -180 -204 -219 -336
-16 -55 -18 -142 -21 -1124 -3 -1197 -4 -1168 66 -1313 88 -180 233 -298 427
-348 76 -19 111 -20 1140 -20 1022 0 1065 1 1138 20 127 32 201 74 298 170 66
65 95 102 123 160 75 154 70 65 74 1250 2 753 0 1084 -8 1130 -39 222 -162
393 -351 483 -52 25 -118 50 -147 56 -80 17 -2200 14 -2268 -3z m136 -1002 c0
-269 6 -309 59 -364 62 -66 155 -75 233 -24 70 45 72 57 78 354 l5 265 58 3
57 3 0 -376 0 -375 -55 0 c-55 0 -55 0 -55 31 0 17 -3 29 -7 27 -5 -2 -32 -16
-62 -32 -116 -61 -244 -43 -336 47 -80 78 -85 104 -85 419 l0 258 55 0 55 0 0
-236z m680 106 c0 -71 2 -130 5 -130 3 0 22 11 43 24 110 72 286 51 366 -45
55 -65 71 -108 71 -194 -1 -69 -4 -87 -30 -133 -70 -129 -220 -184 -357 -133
-31 12 -62 28 -68 36 -19 23 -30 18 -30 -15 0 -30 -1 -30 -55 -30 l-55 0 0
375 0 375 55 0 55 0 0 -130z m937 -89 c88 -45 141 -127 150 -232 l6 -59 -227
0 -227 0 6 -22 c11 -37 59 -92 96 -110 64 -33 170 -18 213 31 24 27 32 27 73
-5 l35 -26 -29 -30 c-15 -16 -50 -42 -78 -56 -41 -21 -64 -26 -130 -26 -124
-1 -214 50 -265 151 -35 68 -36 187 -2 253 41 78 104 129 187 151 47 13 150 2
192 -20z m323 -6 l0 -26 37 26 c27 18 51 25 85 25 l48 0 0 -50 0 -50 -41 0
c-52 0 -92 -24 -113 -67 -13 -27 -16 -68 -16 -208 l0 -175 -55 0 -55 0 0 275
0 275 55 0 c52 0 55 -1 55 -25z m-1520 -785 l0 -60 -195 0 -195 0 0 -95 0 -95
190 0 190 0 0 -55 0 -55 -190 0 -191 0 3 -97 3 -98 193 -3 192 -2 0 -54 0 -55
-52 -6 c-29 -3 -147 -5 -263 -3 l-210 3 -3 368 -2 367 265 0 265 0 0 -60z
m960 -55 l0 -74 78 -3 77 -3 3 -57 3 -58 -81 0 -80 0 0 -143 c0 -98 4 -147 12
-155 7 -7 40 -12 80 -12 l68 0 0 -60 0 -60 -82 0 c-101 0 -147 12 -179 46 -23
25 -24 32 -29 202 l-5 177 -53 3 -53 3 3 57 3 57 50 0 50 0 3 78 3 77 64 0 65
0 0 -75z m-539 -77 c19 -6 46 -19 61 -30 33 -23 36 -23 40 5 3 20 9 22 66 25
l62 3 0 -276 0 -275 -65 0 c-58 0 -65 2 -65 20 0 26 -10 25 -62 -2 -35 -19
-59 -23 -128 -23 -75 0 -91 3 -132 27 -168 99 -203 304 -76 443 76 83 199 117
299 83z m1112 -2 c62 -19 104 -50 127 -96 33 -64 29 -70 -42 -70 -56 0 -64 3
-87 31 -53 63 -190 61 -214 -3 -13 -35 14 -48 174 -82 143 -31 205 -80 202
-161 -4 -120 -107 -183 -281 -172 -61 3 -96 11 -130 29 -50 26 -112 97 -112
129 0 17 8 19 64 19 57 0 65 -3 81 -26 22 -33 72 -54 132 -54 88 0 145 59 91
94 -13 8 -59 22 -103 31 -137 30 -178 46 -217 85 -33 33 -38 44 -38 84 0 51
16 90 49 120 55 50 208 71 304 42z"/>
<path d="M1465 2236 c-56 -24 -115 -112 -115 -171 0 -56 56 -142 111 -171 46
-23 125 -18 177 12 49 29 92 104 92 160 0 54 -49 134 -99 161 -50 26 -118 30
-166 9z"/>
<path d="M2100 2243 c-35 -13 -72 -47 -90 -84 l-20 -39 169 0 c158 0 170 1
164 18 -12 35 -53 80 -86 96 -34 15 -106 20 -137 9z"/>
<path d="M1358 1279 c-59 -31 -88 -82 -88 -155 0 -51 5 -67 29 -101 45 -62
129 -88 198 -62 38 14 83 57 99 96 64 148 -96 297 -238 222z"/>
</g>
</svg>
